<svg width="577" height="12" viewBox="0 0 577 12" fill="none" xmlns="http://www.w3.org/2000/svg">
<rect x="1" y="4" width="572" height="5" fill="#004B23"/>
<rect y="3" width="570" height="6" fill="#004B23"/>
<path d="M16.5 6L10 12V0L16.5 6Z" fill="#004B23"/>
<path d="M30.5 6L24 12V0L30.5 6Z" fill="#004B23"/>
<path d="M58.5 6L52 12V0L58.5 6Z" fill="#004B23"/>
<path d="M44.5 6L38 12V0L44.5 6Z" fill="#004B23"/>
<path d="M72.5 6L66 12V0L72.5 6Z" fill="#004B23"/>
<path d="M86.5 6L80 12V0L86.5 6Z" fill="#004B23"/>
<path d="M100.5 6L94 12V0L100.5 6Z" fill="#004B23"/>
<path d="M114.5 6L108 12V0L114.5 6Z" fill="#004B23"/>
<path d="M128.5 6L122 12V0L128.5 6Z" fill="#004B23"/>
<path d="M156.5 6L150 12V0L156.5 6Z" fill="#004B23"/>
<path d="M142.5 6L136 12V0L142.5 6Z" fill="#004B23"/>
<path d="M170.5 6L164 12V0L170.5 6Z" fill="#004B23"/>
<path d="M184.5 6L178 12V0L184.5 6Z" fill="#004B23"/>
<path d="M198.5 6L192 12V0L198.5 6Z" fill="#004B23"/>
<path d="M212.5 6L206 12V0L212.5 6Z" fill="#004B23"/>
<path d="M240.5 6L234 12V0L240.5 6Z" fill="#004B23"/>
<path d="M226.5 6L220 12V0L226.5 6Z" fill="#004B23"/>
<path d="M254.5 6L248 12V0L254.5 6Z" fill="#004B23"/>
<path d="M268.5 6L262 12V0L268.5 6Z" fill="#004B23"/>
<path d="M282.5 6L276 12V0L282.5 6Z" fill="#004B23"/>
<path d="M296.5 6L290 12V0L296.5 6Z" fill="#004B23"/>
<path d="M310.5 6L304 12V0L310.5 6Z" fill="#004B23"/>
<path d="M380.5 6L374 12V0L380.5 6Z" fill="#004B23"/>
<path d="M394.5 6L388 12V0L394.5 6Z" fill="#004B23"/>
<path d="M408.5 6L402 12V0L408.5 6Z" fill="#004B23"/>
<path d="M422.5 6L416 12V0L422.5 6Z" fill="#004B23"/>
<path d="M450.5 6L444 12V0L450.5 6Z" fill="#004B23"/>
<path d="M478.5 6L472 12V0L478.5 6Z" fill="#004B23"/>
<path d="M492.5 6L486 12V0L492.5 6Z" fill="#004B23"/>
<path d="M506.5 6L500 12V0L506.5 6Z" fill="#004B23"/>
<path d="M534.5 6L528 12V0L534.5 6Z" fill="#004B23"/>
<path d="M548.5 6L542 12V0L548.5 6Z" fill="#004B23"/>
<path d="M562.5 6L556 12V0L562.5 6Z" fill="#004B23"/>
<path d="M576.5 6L570 12V0L576.5 6Z" fill="#004B23"/>
<path d="M520.5 6L514 12V0L520.5 6Z" fill="#004B23"/>
<path d="M436.5 6L430 12V0L436.5 6Z" fill="#004B23"/>
<path d="M464.5 6L458 12V0L464.5 6Z" fill="#004B23"/>
<path d="M366.5 6L360 12V0L366.5 6Z" fill="#004B23"/>
<path d="M352.5 6L346 12V0L352.5 6Z" fill="#004B23"/>
<path d="M338.5 6L332 12V0L338.5 6Z" fill="#004B23"/>
<path d="M324.5 6L318 12V0L324.5 6Z" fill="#004B23"/>
</svg>
